<?xml version="1.0" standalone="no"?>
<!DOCTYPE svg PUBLIC "-//W3C//DTD SVG 20010904//EN"
 "http://www.w3.org/TR/2001/REC-SVG-20010904/DTD/svg10.dtd">
<svg version="1.0" xmlns="http://www.w3.org/2000/svg"
 width="100" height="100" viewBox="0 0 256.000000 256.000000"
 preserveAspectRatio="xMidYMid meet">

<g transform="translate(0.000000,256.000000) scale(0.100000,-0.100000)"
fill="#18a058">
<path d="M1264 1961 c-11 -5 -33 -24 -48 -42 -25 -29 -28 -39 -24 -87 l5 -53
-39 -20 c-58 -29 -115 -94 -138 -155 -11 -30 -20 -61 -20 -69 0 -8 -12 -18
-26 -21 -43 -11 -360 3 -483 21 l-114 16 -59 -58 c-63 -63 -74 -97 -35 -112
12 -5 54 -16 92 -26 132 -32 302 -125 435 -236 115 -97 200 -148 300 -179 30
-10 56 -22 58 -28 2 -6 -13 -28 -32 -50 -34 -38 -39 -40 -109 -44 -79 -5 -117
-23 -135 -64 -21 -45 -15 -91 17 -126 l29 -33 362 -3 361 -3 35 35 c29 29 34
41 34 79 0 79 -52 117 -161 117 -37 0 -50 5 -71 27 -55 60 -55 62 41 109 93
45 190 126 257 214 47 61 71 64 169 19 112 -53 199 -52 262 4 77 68 97 186 44
269 -47 74 -125 101 -226 78 -72 -16 -289 -32 -351 -25 l-62 6 -12 46 c-21 87
-73 154 -149 192 l-38 20 5 54 c4 51 2 57 -30 92 -27 30 -42 38 -78 41 -25 2
-54 0 -66 -5z m91 -101 c9 -15 -4 -47 -22 -54 -46 -18 -81 35 -43 66 22 18 50
13 65 -12z m60 -169 c38 -17 115 -91 115 -110 0 -5 3 -16 6 -25 5 -14 -18 -16
-220 -16 -124 0 -226 2 -226 5 0 19 32 74 56 99 65 65 185 86 269 47z m-890
-246 c61 -8 176 -18 256 -21 121 -6 159 -4 220 10 65 16 108 17 354 11 154 -3
341 -7 416 -8 l137 -2 -20 -25 c-11 -14 -39 -45 -62 -70 -23 -25 -63 -72 -88
-106 -70 -91 -154 -163 -237 -203 -61 -29 -88 -35 -155 -39 -161 -8 -300 46
-473 185 -157 125 -285 200 -415 243 -37 13 -65 26 -62 31 7 11 -1 12 129 -6z
m1651 -3 c49 -39 57 -99 21 -153 -46 -69 -96 -72 -225 -11 l-61 29 72 77 c71
75 73 76 122 76 32 0 58 -7 71 -18z m-790 -582 l21 -38 -34 -7 c-37 -7 -153
-5 -153 3 0 3 11 24 24 46 23 40 25 41 73 38 45 -3 50 -7 69 -42z m260 -145
c4 -8 1 -22 -6 -30 -18 -22 -636 -22 -665 -1 -16 12 -17 16 -6 30 12 14 52 16
343 16 284 0 329 -2 334 -15z" stroke="#18a058" stroke-width="30"/>
</g>
</svg>
