<?xml version="1.0" standalone="no"?>
<!DOCTYPE svg PUBLIC "-//W3C//DTD SVG 20010904//EN"
 "http://www.w3.org/TR/2001/REC-SVG-20010904/DTD/svg10.dtd">
<svg version="1.0" xmlns="http://www.w3.org/2000/svg"
 width="512.000000pt" height="512.000000pt" viewBox="0 0 512.000000 512.000000"
 preserveAspectRatio="xMidYMid meet">

<g transform="translate(0.000000,512.000000) scale(0.100000,-0.100000)"
fill="#18a058" stroke="none">
<path d="M4879 4780 c-102 -31 -226 -220 -250 -382 -20 -137 16 -262 116 -403
92 -129 97 -211 21 -358 -66 -126 -61 -186 19 -249 21 -16 43 -23 75 -23 93 0
170 85 225 250 62 183 38 361 -70 516 -76 109 -89 139 -89 199 0 62 15 96 80
183 49 65 70 122 60 161 -10 40 -64 94 -104 106 -42 11 -47 11 -83 0z"/>
<path d="M2667 4496 c-87 -31 -106 -77 -107 -247 l0 -126 -50 -7 c-75 -10
-222 -61 -313 -108 -304 -158 -531 -462 -586 -783 -7 -38 -14 -80 -17 -92 l-4
-23 -568 0 c-624 0 -653 -3 -761 -60 -82 -44 -165 -130 -208 -217 -93 -189
-57 -412 91 -558 98 -97 212 -145 343 -145 120 0 141 8 496 192 l78 41 112
-110 c191 -186 357 -317 539 -426 98 -59 262 -139 351 -172 55 -21 54 -20 32
-148 -18 -104 -46 -181 -84 -234 -24 -33 -37 -41 -84 -52 -142 -31 -258 -124
-324 -257 l-38 -78 -3 -220 c-3 -255 1 -272 78 -313 l44 -23 1012 2 c1010 3
1013 3 1041 24 15 11 38 36 51 54 21 31 22 42 22 224 0 210 -10 271 -58 359
-58 108 -183 200 -308 228 -42 10 -61 20 -79 43 -41 56 -67 118 -86 210 -30
148 -35 137 86 195 212 101 334 196 660 512 273 265 374 347 555 451 113 64
248 124 383 168 82 27 102 37 125 68 21 28 27 46 27 88 0 57 -18 90 -69 128
-27 21 -39 21 -620 24 l-592 2 -12 83 c-68 435 -413 807 -842 907 -52 12 -100
24 -107 25 -8 3 -13 49 -15 149 l-3 145 -35 36 c-19 20 -46 38 -60 41 -14 3
-32 7 -40 9 -8 2 -32 -2 -53 -9z m261 -690 c131 -35 246 -100 350 -200 133
-127 218 -284 247 -453 l7 -43 -820 0 -819 0 8 48 c56 300 279 549 574 642
127 39 315 42 453 6z m-2140 -1104 c40 -57 72 -105 70 -106 -1 -2 -75 -40
-163 -85 -154 -79 -162 -83 -217 -79 -164 12 -237 209 -119 322 47 45 92 56
230 53 l124 -2 75 -103z m3492 103 c0 -2 -34 -29 -75 -60 -112 -82 -218 -178
-440 -396 -266 -260 -395 -355 -591 -435 -253 -102 -633 -102 -943 2 -294 98
-587 290 -861 564 -112 113 -280 306 -280 323 0 4 718 7 1595 7 877 0 1595 -2
1595 -5z m-1690 -1266 c94 -8 170 -8 250 -1 63 5 117 8 119 6 1 -1 9 -40 17
-86 8 -46 23 -111 34 -145 11 -34 20 -67 20 -73 0 -7 -114 -10 -349 -10 l-349
0 24 74 c13 41 28 105 34 143 20 120 19 116 43 109 12 -3 83 -11 157 -17z
m840 -631 c63 -44 75 -69 78 -179 l4 -99 -826 0 -826 0 0 94 c0 105 15 140 79
183 l34 23 712 0 712 0 33 -22z"/>
</g>
</svg>
